<?xml version="1.0" standalone="no"?>
<!DOCTYPE svg PUBLIC "-//W3C//DTD SVG 20010904//EN"
 "http://www.w3.org/TR/2001/REC-SVG-20010904/DTD/svg10.dtd">
<svg version="1.0" xmlns="http://www.w3.org/2000/svg"
 width="700.000000pt" height="700.000000pt" viewBox="0 0 700.000000 700.000000"
 preserveAspectRatio="xMidYMid meet">
<metadata>
Created by potrace 1.11, written by Peter Selinger 2001-2013
</metadata>
<g transform="translate(0.000000,700.000000) scale(0.100000,-0.100000)"
fill="#000000" stroke="none">
<path d="M2530 6983 c-444 -31 -870 -179 -1209 -421 -123 -87 -317 -274 -419
-404 -398 -510 -685 -1335 -786 -2264 -64 -588 -21 -1307 109 -1825 172 -684
462 -1142 945 -1496 335 -245 718 -410 1140 -493 257 -51 671 -66 945 -35 955
107 1839 546 2580 1281 545 540 896 1158 1019 1791 40 210 51 325 51 553 -2
688 -228 1160 -760 1587 -179 144 -407 294 -825 543 -195 117 -526 319 -735
450 -526 330 -748 451 -1030 563 -338 135 -690 194 -1025 170z m-80 -1012
c121 -94 311 -281 387 -381 66 -87 141 -225 130 -237 -4 -3 -71 -30 -149 -60
-127 -47 -144 -51 -153 -37 -53 86 -98 147 -160 212 l-73 77 -7 -49 c-9 -60 0
-247 14 -295 6 -19 9 -36 7 -39 -7 -6 -299 -113 -301 -110 -1 2 -10 28 -18 58
-30 105 -40 219 -34 374 7 194 33 343 108 629 l10 37 77 -56 c42 -32 115 -87
162 -123z m1271 -548 c98 -198 188 -394 201 -435 18 -57 23 -95 22 -178 0
-138 -15 -188 -117 -388 l-82 -163 43 -82 c466 -881 668 -1287 758 -1520 112
-287 69 -621 -152 -1187 -66 -168 -241 -540 -255 -540 -4 0 -72 27 -151 61
-543 231 -976 509 -1154 741 -107 138 -159 280 -283 773 -55 222 -245 1032
-275 1181 -7 29 -15 34 -164 93 -180 72 -260 119 -337 202 -72 78 -118 163
-151 278 -36 126 -203 775 -200 778 3 3 235 -49 565 -128 l224 -52 86 30 c140
51 673 249 712 266 29 12 70 62 230 283 108 148 213 295 235 326 35 51 40 55
53 40 7 -9 94 -180 192 -379z"/>
<path d="M3403 5103 l-62 -87 74 -140 c41 -78 89 -170 108 -205 l34 -63 29 58
c33 68 44 169 24 231 -17 51 -131 293 -139 292 -3 0 -34 -39 -68 -86z"/>
<path d="M3045 4820 c-11 -5 -155 -59 -320 -120 -165 -61 -303 -115 -308 -119
-7 -7 5 -63 134 -636 220 -974 361 -1545 445 -1807 40 -124 83 -189 190 -287
160 -147 381 -295 614 -412 207 -104 179 -106 238 19 141 300 232 651 232 900
0 109 -2 117 -42 220 -48 123 -436 902 -658 1322 -151 284 -501 931 -504 929
0 0 -10 -4 -21 -9z m627 -1977 c203 -91 262 -352 117 -517 -120 -136 -329
-148 -464 -25 -137 126 -150 324 -29 458 73 82 149 113 259 108 43 -2 88 -12
117 -24z"/>
<path d="M1870 4593 c0 -26 73 -284 91 -320 11 -23 43 -63 70 -87 47 -43 133
-85 145 -73 4 3 -15 103 -41 221 l-48 215 -91 21 c-50 12 -99 23 -108 26 -10
3 -18 2 -18 -3z"/>
</g>
</svg>
